<?xml version="1.0" encoding="UTF-8"?>
<svg version="1.1" xmlns="http://www.w3.org/2000/svg" width="500" height="500">
<path d="M0 0 C165 0 330 0 500 0 C500 165 500 330 500 500 C335 500 170 500 0 500 C0 335 0 170 0 0 Z " fill="#F5F3EF" transform="translate(0,0)"/>
<path d="M0 0 C8.12093273 5.4301646 13.26039237 12.52692524 15.9375 21.875 C16.46658335 26.52425859 16.44875224 31.12562946 16.40625 35.80078125 C16.41702033 37.79571621 16.42781253 39.79065133 16.43990326 41.78557873 C16.45564155 45.25290804 16.44585019 48.72015863 16.4375 52.1875 C16.42752491 56.3487944 16.42210004 60.50969535 16.4473877 64.67094421 C16.46137879 67.25295133 16.45773164 69.83512844 16.43444824 72.41706848 C16.4412561 73.58565903 16.44806396 74.75424957 16.45507812 75.95825195 C16.45189575 76.9828804 16.44871338 78.00750885 16.44543457 79.06318665 C17.0674558 82.61760746 18.45589899 84.30495372 20.9375 86.875 C23.68198951 87.7380133 26.14426192 87.5116518 28.9375 86.875 C31.36869623 85.00484906 32.57819173 83.59361655 33.9375 80.875 C34.02684953 78.99802349 34.05220678 77.11786586 34.04760742 75.23876953 C34.04847603 73.46519577 34.04847603 73.46519577 34.04936218 71.65579224 C34.04725235 70.36945892 34.04514252 69.08312561 34.04296875 67.7578125 C34.05385169 65.03903791 34.07136119 62.32030795 34.08789062 59.6015625 C34.11210517 55.31170926 34.12805765 51.0223335 34.11254883 46.73242188 C34.10077038 43.26074194 34.11860003 39.79024781 34.15499306 36.31875229 C34.16762178 34.37375032 34.14969423 32.42862531 34.13090515 30.4836731 C34.2592423 20.94938973 36.45087775 12.95070435 42.88468933 5.67214966 C51.20943586 -2.33785326 60.78736856 -5.41731961 72.08227539 -5.44189453 C82.53184027 -5.23761922 90.18955932 -0.54030522 97.625 6.46484375 C107.31365147 16.75903594 106.47695216 28.86633461 106.328125 42.1015625 C106.3206538 44.06024597 106.31496502 46.01893697 106.31097412 47.97763062 C106.29578701 53.10366884 106.25656563 58.22924529 106.2121582 63.35510254 C106.17105532 68.59734859 106.15293117 73.8396701 106.1328125 79.08203125 C106.09006392 89.34658848 106.01977148 99.61068339 105.9375 109.875 C97.0275 109.875 88.1175 109.875 78.9375 109.875 C78.92348145 105.99862793 78.92348145 105.99862793 78.90917969 102.04394531 C78.87542832 93.51022679 78.81988978 84.97675057 78.75359726 76.44322586 C78.71407037 71.2687782 78.68190748 66.09450204 78.66650391 60.91992188 C78.65137164 55.92710813 78.61698725 50.93476574 78.56919098 45.94216156 C78.55434173 44.03640589 78.54645696 42.13058293 78.54561615 40.22476959 C78.54325537 37.55721144 78.51624846 34.89096535 78.48339844 32.22363281 C78.4884288 31.4338504 78.49345917 30.64406799 78.49864197 29.83035278 C78.43046324 26.25737289 78.23105473 24.25911199 76.03057861 21.37982178 C72.55917859 18.8840539 70.1342835 19.54192194 65.9375 19.875 C64.4525 20.37 64.4525 20.37 62.9375 20.875 C61.89841446 23.99225663 61.80697188 26.17132926 61.7956543 29.44116211 C61.78861984 30.58342758 61.78158539 31.72569305 61.77433777 32.90257263 C61.76809135 34.75870934 61.76809135 34.75870934 61.76171875 36.65234375 C61.7444547 38.60408982 61.72716634 40.555836 61.70851612 42.50756931 C61.6631081 47.3140156 61.62530228 52.12035335 61.61157227 56.92700195 C61.60337589 59.62052907 61.58463197 62.31360051 61.55464172 65.00697327 C61.52676532 67.53682841 61.51354163 70.06690295 61.51750183 72.59690857 C61.34911178 84.55034008 58.83101419 94.09169238 50.37109375 102.74609375 C41.69937785 110.33210525 32.14785292 112.43664956 20.79296875 112.24609375 C10.87706789 111.29167573 2.28411149 106.53859609 -4.0625 98.875 C-8.41374694 91.72390007 -11.17596782 85.44587199 -11.2043457 77.06835938 C-11.21138016 75.9003479 -11.21841461 74.73233643 -11.22566223 73.52893066 C-11.22982651 72.27157104 -11.23399078 71.01421143 -11.23828125 69.71875 C-11.25553641 67.74118381 -11.27281492 65.7636175 -11.29148388 63.78606415 C-11.33702837 58.91225432 -11.37484203 54.03856212 -11.38842773 49.16455078 C-11.39655595 46.42740761 -11.41510251 43.69072343 -11.44535828 40.95373535 C-11.47356259 38.3763046 -11.48641042 35.79865144 -11.48249817 33.22106934 C-11.49898911 32.05305786 -11.51548004 30.88504639 -11.5324707 29.68164062 C-11.53833694 28.65445923 -11.54420319 27.62727783 -11.55024719 26.56896973 C-12.19375908 23.18470025 -13.39933157 21.99083305 -16.0625 19.875 C-19.82232637 19.08839525 -23.43546974 19.66598991 -27.0625 20.875 C-28.31835321 24.64255962 -28.23933553 28.18327447 -28.26782227 32.11010742 C-28.28267166 33.36897514 -28.28267166 33.36897514 -28.29782104 34.65327454 C-28.32942396 37.42897718 -28.35418874 40.20469695 -28.37890625 42.98046875 C-28.39947682 44.90432685 -28.42047332 46.82818043 -28.44187927 48.75202942 C-28.49708932 53.81709136 -28.54650334 58.88219402 -28.59472656 63.94732666 C-28.64494935 69.11531195 -28.70063136 74.28323808 -28.75585938 79.45117188 C-28.86342793 89.59239926 -28.9643714 99.73367687 -29.0625 109.875 C-37.9725 109.875 -46.8825 109.875 -56.0625 109.875 C-56.15313547 98.85198333 -56.22640837 87.82921716 -56.26974869 76.80591106 C-56.29055761 71.68646505 -56.31875209 66.56728883 -56.36425781 61.44799805 C-56.40795541 56.50073942 -56.43168737 51.5537391 -56.44200897 46.60630226 C-56.44935763 44.72578685 -56.46370711 42.8452844 -56.48542023 40.96487999 C-56.63703804 27.28102877 -56.00166857 15.34333727 -46.0625 4.875 C-33.00082219 -7.25772228 -15.40288057 -8.593499 0 0 Z " fill="#9DA4AF" transform="translate(172.0625,196.125)"/>
<path d="M0 0 C4.91065263 3.57571794 8.65891171 7.92833055 11.51171875 13.27734375 C13.12342236 23.55195424 12.18250821 30.5065731 6.26171875 38.96484375 C2.79538559 41.27573252 0.12313099 40.80184475 -3.98828125 40.46484375 C-5.99960095 38.45352405 -5.79319438 34.64137435 -6.1953125 31.91015625 C-7.17778517 28.8804622 -8.27735644 28.05832635 -10.98828125 26.46484375 C-16.03113545 24.78389235 -20.86533175 24.78677006 -25.80078125 26.71484375 C-29.01170536 28.47770405 -30.15728645 29.38984955 -31.98828125 32.46484375 C-32.49787035 35.10625976 -32.49787035 35.10625976 -32.42578125 37.90234375 C-32.44511719 38.82917969 -32.46445312 39.75601563 -32.484375 40.7109375 C-31.78914455 44.57028762 -31.0845748 45.98243185 -27.98828125 48.46484375 C-24.09642975 49.03399555 -20.28260104 48.84160186 -16.36328125 48.65234375 C-14.26722689 48.57475921 -12.17084963 48.50533056 -10.07421875 48.4453125 C-9.14657715 48.40301514 -8.21893555 48.36071777 -7.26318359 48.31713867 C-4.98828125 48.46484375 -4.98828125 48.46484375 -2.98828125 50.46484375 C-2.45223461 54.4181877 -2.1298737 56.9863157 -4.15625 60.4765625 C-7.08418802 64.06686182 -9.47314308 66.13053821 -13.98828125 67.46484375 C-16.68178198 67.67932106 -19.23643966 67.78982909 -21.92578125 67.77734375 C-22.9612207 67.80151367 -22.9612207 67.80151367 -24.01757812 67.82617188 C-28.8050568 67.83070977 -31.82923223 66.71791569 -35.98828125 64.46484375 C-39.01353151 65.08364494 -40.40359277 65.71310141 -42.30078125 68.15234375 C-43.45033159 72.01901309 -43.61022582 75.75755654 -42.21923828 79.57592773 C-39.90354376 83.1293844 -35.95510598 83.61735204 -31.98828125 84.46484375 C-28.35084108 84.87630968 -24.77153429 84.94163891 -21.11328125 84.90234375 C-20.14455078 84.8962207 -19.17582031 84.89009766 -18.17773438 84.88378906 C-11.18089399 84.73065956 -5.19615437 83.8979857 1.01171875 80.46484375 C1.63046875 80.1296875 2.24921875 79.79453125 2.88671875 79.44921875 C5.95276051 77.59190499 8.07986206 75.46995416 10.01171875 72.46484375 C14.76171875 73.21484375 14.76171875 73.21484375 17.01171875 75.46484375 C15.48943615 88.05085881 2.87289712 100.5230018 -6.18359375 108.39453125 C-11.4033724 112.2475712 -17.07633584 114.8770527 -22.98828125 117.46484375 C-24.10783203 118.00818359 -24.10783203 118.00818359 -25.25 118.5625 C-34.17592269 122.33278169 -46.86400498 121.86080846 -55.98828125 119.02734375 C-63.33014772 115.82588272 -69.83664932 110.30004368 -73.55078125 103.15234375 C-77.28265757 93.57926972 -77.75892402 80.53570166 -74.2265625 70.7421875 C-70.37146106 63.65220599 -64.45619316 57.5550142 -56.98828125 54.46484375 C-53.34190478 53.61385765 -49.69691407 52.97452927 -45.98828125 52.46484375 C-46.4471875 51.98015625 -46.90609375 51.49546875 -47.37890625 50.99609375 C-54.71154223 42.98565108 -57.86169339 37.19926119 -57.4921875 26.06640625 C-56.23542888 17.08399192 -51.6349053 9.75572461 -44.5625 4.15625 C-32.55762455 -3.7316272 -13.32300863 -6.72130238 0 0 Z " fill="#9DA4AF" transform="translate(372.98828125,198.53515625)"/>
</svg>
