<?xml version="1.0" encoding="UTF-8"?>
<svg version="1.1" xmlns="http://www.w3.org/2000/svg" width="500" height="500">
<path d="M0 0 C165 0 330 0 500 0 C500 165 500 330 500 500 C335 500 170 500 0 500 C0 335 0 170 0 0 Z " fill="#000000" transform="translate(0,0)"/>
<path d="M0 0 C1.62305893 1.39498202 3.22682667 2.81266385 4.8125 4.25 C6.13507813 5.39855469 6.13507813 5.39855469 7.484375 6.5703125 C26.45770196 24.0965213 35.87716306 50.86041377 37.8125 76.25 C38.37495308 91.65461214 38.19914185 107.0093971 35.8125 122.25 C35.69422852 123.05969238 35.57595703 123.86938477 35.45410156 124.70361328 C29.92847374 161.87154495 16.01292829 200.46786784 -3.6640625 232.515625 C-5.25018055 235.36250356 -6.25623077 238.13347524 -7.1875 241.25 C5.35565536 239.50899421 17.87078632 237.6369385 30.37084961 235.60839844 C33.18416221 235.15195259 35.99814111 234.69994284 38.8125 234.25 C40.07449219 234.04761719 41.33648437 233.84523438 42.63671875 233.63671875 C45.87663763 233.24218988 48.9879966 233.15084828 52.25 233.1875 C53.30058594 233.19652344 54.35117187 233.20554687 55.43359375 233.21484375 C56.21863281 233.22644531 57.00367188 233.23804688 57.8125 233.25 C57.8125 233.91 57.8125 234.57 57.8125 235.25 C51.82216368 238.00647867 45.68197549 239.94333586 39.3203125 241.61328125 C38.0873217 241.9373999 38.0873217 241.9373999 36.829422 242.26806641 C30.51085139 243.89121944 24.16013397 245.26302607 17.76171875 246.53125 C16.37532448 246.80706657 16.37532448 246.80706657 14.96092224 247.0884552 C11.17372981 247.83776789 7.38580391 248.58172181 3.59301758 249.30224609 C0.77076942 249.84142612 -2.04619929 250.40328349 -4.86328125 250.96875 C-5.71328201 251.12412231 -6.56328278 251.27949463 -7.43904114 251.4395752 C-14.19645068 252.82359677 -18.69739672 255.55354511 -22.64453125 261.4140625 C-23.02988037 261.97295166 -23.41522949 262.53184082 -23.81225586 263.10766602 C-24.20421143 263.69088623 -24.59616699 264.27410645 -25 264.875 C-29.4350645 271.26801381 -34.17045122 277.29856798 -39.1875 283.25 C-40.43273437 284.75626953 -40.43273437 284.75626953 -41.703125 286.29296875 C-51.56352656 298.17114293 -62.17526981 309.31259824 -73.0625 320.25 C-73.75166504 320.94383789 -74.44083008 321.63767578 -75.15087891 322.35253906 C-79.66719631 326.85472599 -84.35046603 331.09648707 -89.1875 335.25 C-90.27032684 336.1996144 -91.35240193 337.15008695 -92.43359375 338.1015625 C-101.37631732 345.90227704 -110.65559046 353.18432784 -120.1875 360.25 C-121.18209229 360.9920166 -121.18209229 360.9920166 -122.19677734 361.74902344 C-158.03998965 388.33177737 -205.77089665 417.6316563 -252.30322266 411.99365234 C-261.48802844 410.59611566 -268.02303063 407.4256836 -273.86328125 400.14453125 C-278.94046643 392.88071175 -279.14831297 384.89731677 -278.1875 376.25 C-271.12113923 347.72283986 -241.19150666 328.20463765 -217.63916016 313.7878418 C-210.53435913 309.50805855 -203.28901964 305.48070252 -196.00048828 301.52319336 C-194.90776611 300.92583374 -194.90776611 300.92583374 -193.79296875 300.31640625 C-192.82073364 299.7896228 -192.82073364 299.7896228 -191.82885742 299.25219727 C-190.01180972 298.23098242 -190.01180972 298.23098242 -188.1875 296.25 C-187.99031587 293.23807343 -187.92009141 290.31783563 -187.9359436 287.30471802 C-187.93297346 286.36661439 -187.93000333 285.42851076 -187.92694318 284.46197975 C-187.91926665 281.29897369 -187.92581211 278.13615134 -187.93212891 274.97314453 C-187.92938074 272.71335727 -187.92570191 270.45357098 -187.92115784 268.19378662 C-187.91302897 263.31775738 -187.9108816 258.44177404 -187.91310501 253.56573868 C-187.9159298 245.86050901 -187.90161754 238.15537165 -187.88412476 230.45016479 C-187.86090987 219.65086095 -187.84180059 208.85156693 -187.82910156 198.05224609 C-187.82788601 197.02375436 -187.82788601 197.02375436 -187.8266459 195.97448502 C-187.81542491 186.24446319 -187.81014359 176.51444707 -187.80725877 166.78441964 C-187.80705478 166.09936487 -187.80685079 165.4143101 -187.80664062 164.70849609 C-187.80644069 164.02427417 -187.80624075 163.34005225 -187.80603476 162.63509633 C-187.80230358 151.23088161 -187.7829984 139.82677049 -187.75154626 128.422593 C-187.73127678 120.75819601 -187.72898925 113.09406639 -187.73982644 105.42965341 C-187.74242671 100.6657618 -187.72846287 95.90202704 -187.70974541 91.13817596 C-187.70440601 88.9242065 -187.70594983 86.71020845 -187.71478081 84.49625015 C-187.72584329 81.48020511 -187.71253836 78.46522842 -187.69302368 75.44924927 C-187.70214834 74.56734676 -187.711273 73.68544426 -187.72067416 72.77681744 C-187.64630914 66.89476903 -187.64630914 66.89476903 -185.37465477 63.70239067 C-182.1809903 61.58162238 -179.93488447 61.78157694 -176.1875 62.25 C-174.00118637 63.22567463 -174.00118637 63.22567463 -172.1875 65.25 C-171.78412242 68.30968901 -171.64084246 71.01349815 -171.66851807 74.07670593 C-171.65726619 75.44649911 -171.65726619 75.44649911 -171.645787 76.84396487 C-171.62542011 79.91663099 -171.63363017 82.9885655 -171.64160156 86.0612793 C-171.63287145 88.25874567 -171.62238765 90.45620567 -171.61027527 92.65365601 C-171.58232593 98.63061069 -171.57901256 104.60735887 -171.57999516 110.58436942 C-171.57687372 116.8264608 -171.55127162 123.06845811 -171.52801514 129.3105011 C-171.49201198 139.79106117 -171.46993862 150.27158534 -171.45849609 160.75219727 C-171.44667161 171.5478061 -171.42648267 182.34334578 -171.39501953 193.13891602 C-171.39211538 194.13688378 -171.39211538 194.13688378 -171.38915256 195.15501251 C-171.37938813 198.49264892 -171.36945001 201.83028476 -171.35944796 205.16792047 C-171.2769633 232.86191537 -171.22292473 260.55590776 -171.1875 288.25 C-169.06184778 287.60631658 -166.93699654 286.95998756 -164.8125 286.3125 C-163.62914062 285.95285156 -162.44578125 285.59320313 -161.2265625 285.22265625 C-158.30823182 284.37423726 -158.30823182 284.37423726 -156.1875 283.25 C-155.17096074 281.06962324 -155.17096074 281.06962324 -154.27734375 278.41015625 C-153.75237305 276.9396582 -153.75237305 276.9396582 -153.21679688 275.43945312 C-152.85650391 274.40755859 -152.49621094 273.37566406 -152.125 272.3125 C-151.40581826 270.28224357 -150.68580689 268.25228077 -149.96484375 266.22265625 C-149.64765381 265.31781494 -149.33046387 264.41297363 -149.00366211 263.48071289 C-148.1875 261.25 -148.1875 261.25 -147.1875 259.25 C-148.5075 259.25 -149.8275 259.25 -151.1875 259.25 C-151.1875 258.59 -151.1875 257.93 -151.1875 257.25 C-149.2075 257.25 -147.2275 257.25 -145.1875 257.25 C-144.8471875 256.074375 -144.8471875 256.074375 -144.5 254.875 C-142.78089067 250.12698375 -140.50665279 245.72897448 -138.1875 241.25 C-139.25871094 241.20101563 -140.32992187 241.15203125 -141.43359375 241.1015625 C-142.83075639 241.02654706 -144.2278905 240.9509987 -145.625 240.875 C-146.68557617 240.82859375 -146.68557617 240.82859375 -147.76757812 240.78125 C-149.57989188 240.67719371 -151.38567988 240.47080108 -153.1875 240.25 C-153.5175 239.59 -153.8475 238.93 -154.1875 238.25 C-146.9275 238.25 -139.6675 238.25 -132.1875 238.25 C-133.84873447 243.23370341 -135.7025298 247.31545991 -138.1640625 251.8828125 C-139.45206145 254.432099 -139.45206145 254.432099 -139.1875 258.25 C-139.77015625 258.80171875 -140.3528125 259.3534375 -140.953125 259.921875 C-144.18820242 263.29268994 -145.35694991 267.15857485 -146.9375 271.5 C-147.25332031 272.34046875 -147.56914062 273.1809375 -147.89453125 274.046875 C-148.66863985 276.11116461 -149.43254423 278.1786458 -150.1875 280.25 C-144.29205043 278.31946936 -138.45297029 276.27311008 -132.62719727 274.14208984 C-108.85213935 265.45915433 -84.74491273 257.72941776 -59.9609375 252.46484375 C-58.91923653 252.24092453 -58.91923653 252.24092453 -57.85649109 252.01248169 C-54.46887115 251.28554366 -51.07950687 250.57898451 -47.67993164 249.91015625 C-38.05768267 247.88349553 -30.74221115 245.31847073 -24.98046875 237.0234375 C-24.024128 235.44739847 -23.09340658 233.85555908 -22.1875 232.25 C-21.7229541 231.4446582 -21.2584082 230.63931641 -20.77978516 229.80957031 C-12.19853991 214.54021906 -5.42613584 198.59318046 0.8125 182.25 C1.16183594 181.34121094 1.51117188 180.43242187 1.87109375 179.49609375 C9.76775077 158.72376303 14.4644516 137.18088324 17.8125 115.25 C18.07728149 113.63557007 18.07728149 113.63557007 18.34741211 111.98852539 C18.86603388 107.8196775 18.9924647 103.7581358 19.015625 99.5625 C19.02132507 98.74233398 19.02702515 97.92216797 19.03289795 97.07714844 C19.04230167 95.3458788 19.04886341 93.61459163 19.05273438 91.88330078 C19.06236966 89.28514718 19.09340778 86.68780991 19.125 84.08984375 C19.19054687 73.71571894 18.27758997 64.3358163 15.8125 54.25 C15.53293457 52.97165283 15.25336914 51.69330566 14.96533203 50.3762207 C10.71187795 31.23033715 -0.20201202 13.89563428 -16.79296875 3.21484375 C-44.97138543 -13.09556314 -77.9585512 -10.88124684 -108.51171875 -3.02734375 C-144.27096719 6.58957817 -178.00737189 20.99372002 -210.1875 39.25 C-210.90357422 39.64977051 -211.61964844 40.04954102 -212.35742188 40.46142578 C-232.54918318 51.74534234 -251.99660511 64.97970505 -270.1875 79.25 C-271.07566406 79.93835938 -271.96382813 80.62671875 -272.87890625 81.3359375 C-275.34397061 83.27475216 -277.77122996 85.25071339 -280.1875 87.25 C-280.6942627 87.66652832 -281.20102539 88.08305664 -281.72314453 88.51220703 C-295.06506584 99.52489879 -307.72721601 111.41918005 -318.1875 125.25 C-318.58775391 125.76852539 -318.98800781 126.28705078 -319.40039062 126.82128906 C-328.26218869 138.35796165 -334.47852947 150.81917511 -340.08203125 164.2109375 C-341.1875 166.25 -341.1875 166.25 -344.1875 168.25 C-346.94770996 168.62167184 -349.37602476 168.42850636 -352.1875 168.25 C-354.1875 166.25 -354.1875 166.25 -354.75 163 C-354.23033598 147.76563907 -338.32726347 130.08420135 -328.41796875 119.62109375 C-326.53758059 117.62215222 -324.74340171 115.58639086 -322.953125 113.5078125 C-319.06630501 109.04770604 -314.94328673 104.85814072 -310.75 100.6875 C-310.03779297 99.97142578 -309.32558594 99.25535156 -308.59179688 98.51757812 C-303.95445197 93.8886571 -299.16294491 89.51135496 -294.1875 85.25 C-292.74117187 83.9815625 -292.74117187 83.9815625 -291.265625 82.6875 C-275.81121778 69.36767941 -259.18933861 57.50327348 -242.1875 46.25 C-241.45837402 45.76499023 -240.72924805 45.27998047 -239.97802734 44.78027344 C-203.96257175 20.97385608 -163.37769981 0.28829774 -121.36962891 -10.19677734 C-119.04405449 -10.78636692 -116.73169836 -11.41637903 -114.41796875 -12.05078125 C-77.63895648 -21.95827068 -31.95546429 -24.46590235 0 0 Z " fill="#989FAB" transform="translate(404.1875,43.75)"/>
<path d="M0 0 C1 3 1 3 -0.61328125 6.296875 C-2.82324256 9.90783621 -5.39656893 13.07752517 -8.1875 16.25 C-9.17801301 17.39502977 -10.16758463 18.54087452 -11.15625 19.6875 C-11.64222656 20.24953125 -12.12820313 20.8115625 -12.62890625 21.390625 C-14.53865411 23.63226636 -16.35831277 25.94240995 -18.1875 28.25 C-30.59753056 43.46943142 -44.7821911 58.48671707 -59.8125 71.15234375 C-61.64956634 72.70400871 -63.45269421 74.28181055 -65.25 75.87890625 C-84.75501843 93.14415129 -106.28273428 108.24128626 -129 121 C-129.7724707 121.4340918 -130.54494141 121.86818359 -131.34082031 122.31542969 C-149.04666873 132.15660331 -167.14646773 139.77635191 -187 144 C-188.30710938 144.28810547 -188.30710938 144.28810547 -189.640625 144.58203125 C-198.3763923 146.12959267 -206.34907762 144.93210324 -213.875 140.1875 C-218.18360498 135.75217134 -219.23070533 131.96688212 -219.5 125.875 C-219.04996444 108.6758148 -207.00144397 96.24279925 -195.30859375 84.96484375 C-183.8082511 74.18828081 -170.59511819 65.86827066 -157 58 C-156.19804199 57.52933105 -155.39608398 57.05866211 -154.56982422 56.57373047 C-153.77205566 56.11498535 -152.97428711 55.65624023 -152.15234375 55.18359375 C-151.42909912 54.7652124 -150.70585449 54.34683105 -149.96069336 53.91577148 C-148 53 -148 53 -145 53 C-143.56258818 55.87482363 -143.83523299 58.40770302 -143.7890625 61.6171875 C-143.76099158 62.95964756 -143.7323271 64.30209532 -143.703125 65.64453125 C-143.66188735 67.75992457 -143.62499889 69.87508875 -143.59863281 71.99072266 C-143.57097161 74.03335962 -143.52510269 76.07495412 -143.4765625 78.1171875 C-143.4468335 79.95192627 -143.4468335 79.95192627 -143.41650391 81.82373047 C-142.97466679 85.19319173 -142.3834065 86.62205586 -140 89 C-137.9511352 89.48057715 -137.9511352 89.48057715 -135.8125 89.25 C-134.554375 89.1675 -133.29625 89.085 -132 89 C-129.33357959 85.06612126 -129.73864537 80.81240333 -129.76171875 76.25390625 C-129.74630228 74.51236197 -129.72999888 72.77082536 -129.71289062 71.02929688 C-129.6964274 68.29271498 -129.68751498 65.5566958 -129.69458008 62.82006836 C-129.69720133 60.17237071 -129.66907754 57.52637623 -129.63671875 54.87890625 C-129.64692551 54.0641835 -129.65713226 53.24946075 -129.66764832 52.41004944 C-129.59469556 48.16422135 -129.39530736 46.49744221 -126.66601562 43.06298828 C-123.55989759 40.65944456 -120.37491659 38.91483771 -116.8125 37.3125 C-115.70998901 36.80831543 -115.70998901 36.80831543 -114.58520508 36.29394531 C-84.7593809 22.92427359 -53.18602678 12.80013155 -21.56103516 4.68310547 C-17.15461148 3.50777912 -12.83128206 2.10239488 -8.515625 0.62890625 C-5.60725662 -0.09818584 -2.98619331 -0.10914449 0 0 Z " fill="#010101" transform="translate(361,303)"/>
</svg>
